<svg width="635" height="195" viewBox="0 0 635 195" fill="none" xmlns="http://www.w3.org/2000/svg">
<path d="M7.85068 104.523H15.7014L11.4831 119.639V126.904C11.4831 128.31 11.6003 130.77 11.7174 133.348H0C0.117174 129.95 0.234348 129.013 0.234348 126.786V119.639L7.85068 104.523Z" fill="black"/>
<path d="M82.6729 193.224H22.3281C22.3281 171.43 30.0616 159.947 48.1064 150.69L56.0743 146.589C66.1513 141.433 69.5493 136.395 69.5493 128.896C69.5493 118.584 62.8704 112.374 53.4965 112.374C42.3649 112.374 35.686 119.756 33.8112 132.879H22.0938C23.2655 121.982 26.7807 114.249 32.8738 109.327C38.0295 105.109 45.1771 103 54.4339 103C70.9554 103 81.7355 112.843 81.7355 128.544C81.7355 140.379 76.4626 147.643 63.3391 154.44L56.3086 158.072C41.4275 165.688 35.686 172.484 33.5768 183.499H49.3954C56.7773 183.499 64.0421 183.382 82.6729 182.913V193.224Z" fill="black"/>
<path d="M118.055 194.747C98.0181 194.747 87.3553 184.436 85.3633 164.634H96.9635C98.0181 178.226 105.4 185.374 117.821 185.374C129.538 185.374 136.217 178.109 136.217 167.446C136.217 159.595 131.764 153.502 124.968 151.041C122.508 150.104 119.813 149.753 114.657 149.753H108.915V140.379H114.188C118.992 140.379 122.156 140.027 124.734 138.973C130.124 136.863 133.053 132.645 133.053 126.786C133.053 117.881 126.843 112.257 117.352 112.257C106.337 112.257 99.307 118.584 98.3696 129.599H86.7694C88.2926 113.311 99.307 103 117.118 103C136.1 103 144.888 113.429 144.888 124.912C144.888 133.934 140.084 141.668 128.366 144.363V144.948C141.607 147.409 148.052 156.08 148.052 168.5C148.052 182.913 136.686 194.747 118.055 194.747Z" fill="black"/>
<path d="M232.821 32.3744L207.512 56.3951L234.345 95.0626V96H221.807L200.247 63.3084L192.514 70.5732V72.9167C192.514 80.6502 192.748 89.5554 192.865 96H181.03C181.148 89.5554 181.382 80.6502 181.382 72.9167V54.6375C181.382 46.904 181.148 38.1159 181.03 31.5541H192.865C192.748 38.1159 192.514 46.904 192.514 54.6375V57.9184H193.099L219.229 31.5541H232.821V32.3744ZM254.544 96H240.015C240.132 89.4382 240.366 80.6502 240.366 72.9167V54.6375C240.366 46.904 240.132 37.9987 240.015 31.5541H251.381C251.264 37.9987 251.029 46.904 251.029 54.6375L251.146 72.9167C251.146 77.2521 250.912 81.8219 250.561 84.9856H250.912L279.385 31.5541H293.915C293.798 38.1159 293.564 46.904 293.564 54.6375V72.9167C293.564 80.6502 293.798 89.5554 293.915 96H282.549C282.666 89.5554 282.901 80.6502 282.901 72.9167V54.6375C282.901 50.302 283.018 45.7322 283.369 42.8029H283.018L254.544 96ZM311.574 22.1802H301.965C301.965 19.4852 302.082 18.5478 302.082 16.3215V14.6811C302.082 13.275 302.082 12.3376 301.965 9.87691H311.574C311.456 12.3376 311.456 13.275 311.456 14.6811V16.3215C311.456 18.5478 311.574 19.4852 311.574 22.1802ZM325.283 22.1802H315.675C315.675 19.4852 315.792 18.5478 315.792 16.3215V14.6811C315.792 13.275 315.792 12.3376 315.675 9.87691H325.283C325.166 12.3376 325.166 13.275 325.166 14.6811V16.3215C325.166 18.5478 325.283 19.4852 325.283 22.1802ZM319.541 96H307.707C307.824 89.5554 308.058 80.6502 308.058 72.9167V54.6375C308.058 46.904 307.824 38.1159 307.707 31.5541H319.541C319.424 38.1159 319.19 46.904 319.19 54.6375V72.9167C319.19 80.6502 319.424 89.5554 319.541 96ZM357.237 96H332.396C332.865 72.7995 332.747 77.3693 332.747 72.9167V54.6375C332.747 50.1849 332.865 57.2153 332.396 31.5541H362.51C373.993 31.5541 384.304 33.5461 384.304 46.5525C384.304 54.0516 379.383 58.6214 372.469 60.9649V61.3164C381.492 63.1912 386.413 68.6984 386.413 77.0178C386.413 85.4543 381.961 91.313 373.524 94.2424C369.892 95.5313 365.205 96 357.237 96ZM343.41 39.522V57.3325H359.346C368.485 57.3325 372.938 54.6375 372.938 47.8414C372.938 44.7948 371.649 42.0998 368.72 40.8109C366.494 39.7563 363.447 39.522 359.346 39.522H343.41ZM343.41 64.3629V87.915H360.635C370.126 87.915 374.579 83.8139 374.579 76.5491C374.579 71.6278 372.235 67.9953 368.251 66.1206C365.673 64.9488 361.689 64.3629 356.065 64.3629H343.41ZM424.09 97.6404C403.468 97.6404 392.805 82.525 392.805 63.8942C392.805 45.1464 403.468 30.0309 423.856 30.0309C440.026 30.0309 450.806 39.522 451.978 52.6455H440.612C439.792 44.209 433.933 38.4674 424.793 38.4674C410.498 38.4674 404.405 50.6536 404.405 63.7771C404.405 77.0178 410.498 89.2039 424.09 89.2039C434.636 89.2039 440.729 82.2906 441.315 72.6823H453.032C452.212 87.0948 441.198 97.6404 424.09 97.6404ZM500.238 57.5668C507.62 60.2618 512.19 66.7064 512.19 75.3773C512.19 84.8684 507.737 91.313 500.238 94.1252C496.371 95.6485 492.036 96 486.997 96H459.813C459.93 89.5554 460.164 80.6502 460.164 72.9167V54.6375C460.164 46.904 459.93 38.1159 459.813 31.5541H471.647C471.53 38.1159 471.296 46.904 471.296 54.6375V56.2779H490.512C494.028 56.2779 497.191 56.5123 500.238 57.5668ZM494.731 86.6261C498.246 84.8684 500.121 81.4704 500.121 76.3147C500.121 71.3934 498.246 67.6438 494.496 65.8862C492.622 65.066 490.395 64.8316 487.7 64.8316H471.296V72.9167C471.296 77.838 471.413 83.1108 471.53 88.0321H486.529C489.809 88.0321 492.622 87.6806 494.731 86.6261ZM571.029 32.3744L545.72 56.3951L572.553 95.0626V96H560.015L538.455 63.3084L530.722 70.5732V72.9167C530.722 80.6502 530.956 89.5554 531.073 96H519.238C519.356 89.5554 519.59 80.6502 519.59 72.9167V54.6375C519.59 46.904 519.356 38.1159 519.238 31.5541H531.073C530.956 38.1159 530.722 46.904 530.722 54.6375V57.9184H531.307L557.437 31.5541H571.029V32.3744ZM571.863 78.1895C571.863 67.058 577.136 61.9023 592.603 59.3245L604.321 57.3325C612.992 55.8092 614.984 55.3405 616.507 54.6375V50.7707C616.507 41.7483 610.648 37.9987 601.274 37.9987C592.72 37.9987 586.979 42.3342 586.159 49.8333H574.207C575.847 36.827 585.456 30.0309 602.329 30.0309C616.155 30.0309 626.349 35.1865 626.701 50.0677L627.17 73.151C627.404 84.0482 627.404 90.0241 627.638 96H616.741L617.444 85.923H616.624C613.343 93.305 605.727 97.4061 594.83 97.4061C582.058 97.4061 571.863 89.3211 571.863 78.1895ZM583.464 78.3067C583.464 85.8058 589.322 88.9695 595.415 88.9695C606.078 88.9695 616.272 84.1654 616.507 68.5812L616.624 61.4336C614.866 62.8397 613.929 63.5427 609.242 64.5973L593.541 68.1125C586.393 69.753 583.464 71.9793 583.464 78.3067Z" fill="black"/>
<path d="M202.316 129.609C219.892 129.609 230.438 142.849 230.438 161.949V162.183C230.438 181.048 218.955 194.406 199.973 194.406C180.99 194.406 169.507 180.931 169.507 159.723V153.395C169.507 124.922 180.522 114.845 206.183 108.635L224.462 104.182V114.376L206.769 118.36C193.762 121.289 182.162 125.976 179.701 141.326C184.505 134.061 192.239 129.609 202.316 129.609ZM199.973 186.204C211.456 186.204 218.838 176.83 218.838 162.066C218.838 147.185 211.573 137.928 199.973 137.928C188.372 137.928 180.99 147.185 180.99 162.066C180.99 176.83 188.489 186.204 199.973 186.204ZM251.325 119.18H239.49C239.49 116.485 239.608 115.548 239.608 113.321V111.681C239.608 110.275 239.608 109.338 239.49 106.877H251.325C251.208 109.338 251.208 110.275 251.208 111.681V113.321C251.208 115.548 251.325 116.485 251.325 119.18ZM251.325 193H239.49C239.608 186.555 239.842 177.65 239.842 169.917V151.637C239.842 143.904 239.608 135.116 239.49 128.554H251.325C251.208 135.116 250.974 143.904 250.974 151.637V169.917C250.974 177.65 251.208 186.555 251.325 193ZM309.174 169.682H320.892C320.072 184.095 309.057 194.64 291.715 194.64C270.741 194.64 260.078 179.525 260.078 160.894C260.078 142.146 270.741 127.031 291.247 127.031C307.651 127.031 318.431 136.522 319.603 149.646H308.12C307.3 141.209 301.441 135.467 292.184 135.467C279.529 135.467 273.788 143.67 272.03 153.981C281.404 153.981 291.833 153.864 301.558 153.747V162.769C291.715 162.652 281.053 162.535 271.561 162.535C272.03 175.072 277.537 186.204 291.715 186.204C302.378 186.204 308.471 179.291 309.174 169.682ZM380.035 151.637V169.917C380.035 177.65 380.27 186.555 380.387 193H368.552C368.67 186.555 368.904 177.65 368.904 169.917V161.949H339.376V169.917C339.376 177.65 339.61 186.555 339.728 193H327.893C328.01 186.555 328.244 177.65 328.244 169.917V151.637C328.244 143.904 328.01 135.116 327.893 128.554H339.728C339.61 135.116 339.376 143.904 339.376 151.637V153.512H368.904V151.637C368.904 143.904 368.67 135.116 368.552 128.554H380.387C380.27 135.116 380.035 143.904 380.035 151.637ZM389.1 175.19C389.1 164.058 394.373 158.902 409.84 156.324L421.557 154.332C430.228 152.809 432.22 152.341 433.743 151.637V147.771C433.743 138.748 427.885 134.999 418.511 134.999C409.957 134.999 404.215 139.334 403.395 146.833H391.443C393.084 133.827 402.692 127.031 419.565 127.031C433.392 127.031 443.586 132.187 443.938 147.068L444.406 170.151C444.641 181.048 444.641 187.024 444.875 193H433.978L434.681 182.923H433.861C430.58 190.305 422.963 194.406 412.066 194.406C399.294 194.406 389.1 186.321 389.1 175.19ZM400.7 175.307C400.7 182.806 406.559 185.97 412.652 185.97C423.315 185.97 433.509 181.165 433.743 165.581L433.861 158.434C432.103 159.84 431.166 160.543 426.479 161.597L410.777 165.113C403.63 166.753 400.7 168.979 400.7 175.307ZM505.828 151.637V169.917C505.828 177.65 506.063 186.555 506.18 193H494.345C494.463 186.555 494.697 177.65 494.697 169.917V151.637C494.697 146.951 494.58 141.795 494.463 136.991H471.262V153.044C471.262 175.307 465.521 188.547 461.185 193H448.647V192.18C453.452 186.907 460.131 174.955 460.131 153.044V128.554H506.18C506.063 135.116 505.828 143.904 505.828 151.637ZM564.019 169.682H575.737C574.916 184.095 563.902 194.64 546.56 194.64C525.586 194.64 514.923 179.525 514.923 160.894C514.923 142.146 525.586 127.031 546.092 127.031C562.496 127.031 573.276 136.522 574.448 149.646H562.965C562.144 141.209 556.286 135.467 547.029 135.467C534.374 135.467 528.633 143.67 526.875 153.981C536.249 153.981 546.677 153.864 556.403 153.747V162.769C546.56 162.652 535.897 162.535 526.406 162.535C526.875 175.072 532.382 186.204 546.56 186.204C557.223 186.204 563.316 179.291 564.019 169.682Z" fill="black"/>
</svg>
